<?xml version="1.0" standalone="no"?>
<!DOCTYPE svg PUBLIC "-//W3C//DTD SVG 20010904//EN"
 "http://www.w3.org/TR/2001/REC-SVG-20010904/DTD/svg10.dtd">
<svg version="1.0" xmlns="http://www.w3.org/2000/svg"
 width="225.000000pt" height="225.000000pt" viewBox="0 0 225.000000 225.000000"
 preserveAspectRatio="xMidYMid meet">

<g transform="translate(0.000000,225.000000) scale(0.100000,-0.100000)"
fill="#000000" stroke="none">
<path d="M1071 2239 c-60 -18 -854 -487 -887 -524 -17 -19 -36 -52 -42 -73 -9
-28 -12 -185 -12 -533 0 -460 2 -497 19 -534 10 -22 31 -52 47 -66 41 -37 827
-489 871 -501 80 -22 103 -11 542 244 256 149 430 257 453 280 20 21 42 55 47
75 7 24 11 219 11 533 0 459 -2 498 -19 535 -10 23 -32 52 -48 66 -16 14 -214
131 -439 261 -437 253 -459 262 -543 237z m187 -111 c388 -222 703 -405 730
-425 70 -52 67 -22 63 -572 -3 -542 -1 -528 -63 -574 -77 -56 -819 -478 -850
-483 -20 -4 -49 0 -68 9 -84 35 -808 461 -837 492 l-33 35 0 503 0 504 23 34
c17 26 109 85 402 256 209 123 403 234 430 249 66 33 104 28 203 -28z"/>
<path d="M669 1457 c-138 -52 -209 -171 -209 -352 0 -123 27 -203 93 -270 59
-61 122 -85 218 -85 122 0 207 50 258 152 41 80 40 88 -8 88 -37 0 -40 -3 -52
-37 -18 -57 -87 -119 -145 -131 -93 -20 -181 13 -234 89 -26 35 -50 109 -50
151 l0 28 265 0 c146 0 265 2 265 4 0 38 -26 168 -40 201 -24 56 -83 121 -134
147 -52 27 -174 35 -227 15z m213 -93 c48 -33 95 -116 100 -174 l3 -35 -224
-3 -223 -2 7 37 c16 88 73 169 140 200 18 8 54 12 92 10 50 -2 71 -9 105 -33z"/>
<path d="M1136 1438 c4 -7 58 -81 120 -165 l113 -152 -121 -163 c-66 -90 -125
-169 -130 -175 -8 -10 1 -13 40 -13 l50 0 94 127 c51 70 98 133 104 142 9 11
31 -13 118 -127 l107 -142 50 0 c40 0 49 3 42 13 -6 6 -65 86 -132 175 l-122
164 114 151 c62 84 116 158 121 165 5 9 -5 12 -42 12 l-48 0 -96 -130 -95
-131 -98 131 -97 130 -50 0 c-37 0 -47 -3 -42 -12z"/>
</g>
</svg>
